<svg width="31" height="31" viewBox="0 0 31 31" fill="none" xmlns="http://www.w3.org/2000/svg">
<g clip-path="url(#clip0_162_847)">
<path d="M30.7957 15.3444C30.7957 6.93812 23.9811 0.123535 15.5748 0.123535C7.16859 0.123535 0.354004 6.93812 0.354004 15.3444C0.354004 22.9414 5.92001 29.2384 13.1966 30.3803V19.7441H9.33191V15.3444H13.1966V11.991C13.1966 8.1763 15.469 6.06917 18.9457 6.06917C20.6105 6.06917 22.3528 6.36645 22.3528 6.36645V10.1122H20.4336C18.5429 10.1122 17.9531 11.2856 17.9531 12.4905V15.3444H22.1745L21.4997 19.7441H17.9531V30.3803C25.2296 29.2384 30.7957 22.9414 30.7957 15.3444Z" fill="#98A2B3"/>
</g>
<defs>
<clipPath id="clip0_162_847">
<rect width="30.4416" height="30.4416" fill="white" transform="translate(0.354004 0.123535)"/>
</clipPath>
</defs>
</svg>
