<svg width="32" height="31" viewBox="0 0 32 31" fill="none" xmlns="http://www.w3.org/2000/svg">
<g clip-path="url(#clip0_162_846)">
<path d="M15.839 2.86447C19.9058 2.86447 20.3874 2.88231 21.9868 2.95366C23.4732 3.01906 24.2758 3.26878 24.811 3.47687C25.5185 3.75037 26.0298 4.08333 26.559 4.61249C27.0941 5.1476 27.4211 5.65298 27.6946 6.36051C27.9027 6.89561 28.1524 7.70422 28.2178 9.18468C28.2891 10.79 28.307 11.2716 28.307 15.3325C28.307 19.3993 28.2891 19.8809 28.2178 21.4803C28.1524 22.9667 27.9027 23.7693 27.6946 24.3044C27.4211 25.012 27.0881 25.5233 26.559 26.0524C26.0239 26.5876 25.5185 26.9146 24.811 27.1881C24.2758 27.3962 23.4672 27.6459 21.9868 27.7113C20.3815 27.7826 19.8999 27.8005 15.839 27.8005C11.7722 27.8005 11.2906 27.7826 9.6912 27.7113C8.20479 27.6459 7.40213 27.3962 6.86703 27.1881C6.1595 26.9146 5.64817 26.5816 5.11901 26.0524C4.5839 25.5173 4.25689 25.012 3.98339 24.3044C3.7753 23.7693 3.52558 22.9607 3.46018 21.4803C3.38883 19.8749 3.37099 19.3933 3.37099 15.3325C3.37099 11.2657 3.38883 10.7841 3.46018 9.18468C3.52558 7.69827 3.7753 6.89561 3.98339 6.36051C4.25689 5.65298 4.58985 5.14165 5.11901 4.61249C5.65412 4.07738 6.1595 3.75037 6.86703 3.47687C7.40213 3.26878 8.21074 3.01906 9.6912 2.95366C11.2906 2.88231 11.7722 2.86447 15.839 2.86447ZM15.839 0.123535C11.7068 0.123535 11.1895 0.141372 9.56634 0.21272C7.94913 0.284067 6.8373 0.545675 5.8741 0.92025C4.86929 1.31266 4.01907 1.82993 3.17479 2.68016C2.32456 3.52444 1.80729 4.37466 1.41488 5.37353C1.0403 6.34267 0.778696 7.44856 0.707349 9.06577C0.636001 10.6949 0.618164 11.2121 0.618164 15.3444C0.618164 19.4766 0.636001 19.9938 0.707349 21.617C0.778696 23.2342 1.0403 24.3461 1.41488 25.3092C1.80729 26.3141 2.32456 27.1643 3.17479 28.0086C4.01907 28.8528 4.86929 29.3761 5.86816 29.7625C6.8373 30.1371 7.94319 30.3987 9.5604 30.4701C11.1836 30.5414 11.7008 30.5592 15.833 30.5592C19.9653 30.5592 20.4825 30.5414 22.1057 30.4701C23.7229 30.3987 24.8347 30.1371 25.7979 29.7625C26.7968 29.3761 27.647 28.8528 28.4913 28.0086C29.3356 27.1643 29.8588 26.3141 30.2453 25.3152C30.6198 24.3461 30.8814 23.2402 30.9528 21.6229C31.0241 19.9998 31.042 19.4825 31.042 15.3503C31.042 11.2181 31.0241 10.7008 30.9528 9.07766C30.8814 7.46045 30.6198 6.34861 30.2453 5.38542C29.8707 4.37466 29.3534 3.52444 28.5032 2.68016C27.6589 1.83588 26.8087 1.31266 25.8098 0.926196C24.8407 0.551621 23.7348 0.290013 22.1176 0.218665C20.4885 0.141372 19.9712 0.123535 15.839 0.123535Z" fill="#98A2B3"/>
<path d="M15.839 7.52588C11.5225 7.52588 8.02051 11.0279 8.02051 15.3444C8.02051 19.6609 11.5225 23.1629 15.839 23.1629C20.1555 23.1629 23.6575 19.6609 23.6575 15.3444C23.6575 11.0279 20.1555 7.52588 15.839 7.52588ZM15.839 20.416C13.0386 20.416 10.7674 18.1448 10.7674 15.3444C10.7674 12.544 13.0386 10.2728 15.839 10.2728C18.6394 10.2728 20.9106 12.544 20.9106 15.3444C20.9106 18.1448 18.6394 20.416 15.839 20.416Z" fill="#98A2B3"/>
<path d="M25.7922 7.21643C25.7922 8.22718 24.9717 9.04174 23.9669 9.04174C22.9562 9.04174 22.1416 8.22124 22.1416 7.21643C22.1416 6.20567 22.9621 5.39111 23.9669 5.39111C24.9717 5.39111 25.7922 6.21161 25.7922 7.21643Z" fill="#98A2B3"/>
</g>
<defs>
<clipPath id="clip0_162_846">
<rect width="30.4416" height="30.4416" fill="white" transform="translate(0.618164 0.123535)"/>
</clipPath>
</defs>
</svg>
