<svg width="31" height="31" viewBox="0 0 31 31" fill="none" xmlns="http://www.w3.org/2000/svg">
<g clip-path="url(#clip0_162_844)">
<path d="M28.3342 0.123535H2.39345C1.15081 0.123535 0.145996 1.10456 0.145996 2.31747V28.3653C0.145996 29.5782 1.15081 30.5652 2.39345 30.5652H28.3342C29.5769 30.5652 30.5876 29.5782 30.5876 28.3712V2.31747C30.5876 1.10456 29.5769 0.123535 28.3342 0.123535ZM9.17741 26.0643H4.65873V11.5332H9.17741V26.0643ZM6.91807 9.55331C5.46734 9.55331 4.29605 8.38202 4.29605 6.93723C4.29605 5.49244 5.46734 4.32115 6.91807 4.32115C8.36286 4.32115 9.53415 5.49244 9.53415 6.93723C9.53415 8.37608 8.36286 9.55331 6.91807 9.55331ZM26.0868 26.0643H21.5741V19.0009C21.5741 17.3183 21.5443 15.1482 19.2255 15.1482C16.877 15.1482 16.5203 16.9854 16.5203 18.882V26.0643H12.0135V11.5332H16.3419V13.519H16.4014C17.0019 12.3775 18.4764 11.1705 20.6703 11.1705C25.2425 11.1705 26.0868 14.179 26.0868 18.0912V26.0643Z" fill="#98A2B3"/>
</g>
<defs>
<clipPath id="clip0_162_844">
<rect width="30.4416" height="30.4416" fill="white" transform="translate(0.145996 0.123535)"/>
</clipPath>
</defs>
</svg>
