<svg width="32" height="31" viewBox="0 0 32 31" fill="none" xmlns="http://www.w3.org/2000/svg">
<g clip-path="url(#clip0_162_845)">
<path d="M10.4585 27.7113C21.9431 27.7113 28.2264 18.1941 28.2264 9.94338C28.2264 9.67583 28.2205 9.40233 28.2086 9.13477C29.4309 8.25082 30.4857 7.15593 31.3235 5.90154C30.1851 6.40801 28.9765 6.73879 27.7389 6.88257C29.042 6.10145 30.0177 4.87435 30.4851 3.42875C29.2592 4.15528 27.9186 4.66778 26.5206 4.94429C25.5787 3.94346 24.3333 3.28079 22.977 3.05873C21.6207 2.83668 20.229 3.06761 19.0171 3.71582C17.8052 4.36404 16.8406 5.39342 16.2724 6.64484C15.7042 7.89625 15.5641 9.29999 15.8738 10.639C13.3914 10.5145 10.963 9.86961 8.7459 8.74631C6.5288 7.623 4.5725 6.04631 3.00383 4.11844C2.20655 5.49304 1.96259 7.11964 2.32151 8.66766C2.68044 10.2157 3.61532 11.5689 4.93616 12.4524C3.94456 12.421 2.97467 12.154 2.10664 11.6736V11.7509C2.10575 13.1934 2.60445 14.5917 3.51797 15.7081C4.43149 16.8246 5.70344 17.5902 7.11762 17.8749C6.19905 18.1262 5.23497 18.1628 4.29998 17.9819C4.69903 19.2225 5.47545 20.3075 6.52086 21.0856C7.56627 21.8637 8.82853 22.296 10.1315 22.3222C7.91947 24.0597 5.18701 25.0022 2.37419 24.9977C1.87536 24.997 1.37702 24.9664 0.881836 24.9062C3.73936 26.7394 7.06343 27.7131 10.4585 27.7113Z" fill="#98A2B3"/>
</g>
<defs>
<clipPath id="clip0_162_845">
<rect width="30.4416" height="30.4416" fill="white" transform="translate(0.881836 0.123535)"/>
</clipPath>
</defs>
</svg>
