<svg width="31" height="31" viewBox="0 0 31 31" fill="none" xmlns="http://www.w3.org/2000/svg">
<g clip-path="url(#clip0_162_848)">
<path d="M29.8888 4.87616C29.7155 3.95676 29.3763 3.11848 28.9051 2.44523C28.4338 1.77198 27.8471 1.28736 27.2035 1.03989C24.8336 0.123535 15.3102 0.123535 15.3102 0.123535C15.3102 0.123535 5.7868 0.123535 3.41683 1.03989C2.77329 1.28736 2.18653 1.77198 1.71527 2.44523C1.24402 3.11848 0.90481 3.95676 0.731588 4.87616C0.289061 8.32922 0.0743154 11.834 0.0901735 15.3444C0.0743154 18.8547 0.289061 22.3595 0.731588 25.8126C0.90481 26.732 1.24402 27.5702 1.71527 28.2435C2.18653 28.9167 2.77329 29.4014 3.41683 29.6488C5.7868 30.5652 15.3102 30.5652 15.3102 30.5652C15.3102 30.5652 24.8336 30.5652 27.2035 29.6488C27.8471 29.4014 28.4338 28.9167 28.9051 28.2435C29.3763 27.5702 29.7155 26.732 29.8888 25.8126C30.3313 22.3595 30.546 18.8547 30.5302 15.3444C30.546 11.834 30.3313 8.32922 29.8888 4.87616ZM12.2662 21.8676V8.82115L20.1697 15.3444L12.2662 21.8676Z" fill="#98A2B3"/>
</g>
<defs>
<clipPath id="clip0_162_848">
<rect width="30.4416" height="30.4416" fill="white" transform="translate(0.090332 0.123535)"/>
</clipPath>
</defs>
</svg>
